<svg viewBox="0 0 1551 390" fill="none" xmlns="http://www.w3.org/2000/svg">
<path fill-rule="evenodd" clip-rule="evenodd" d="M0 333.709C58.7755 329.032 137.222 314.619 240.728 285.046C242.954 283.119 247.147 280.863 253.63 278.351C680.516 269.186 1316.26 248.611 1551 205.053V202.293C1480.72 216.802 1399.56 214.602 1282.92 211.441C1167.46 208.311 1017.23 204.239 808.351 214.497C448.737 232.158 297.871 261.209 253.63 278.351C155.615 280.455 68.6115 281.958 0 282.999V333.709Z" fill="#803CC3"/>
<path fill-rule="evenodd" clip-rule="evenodd" d="M1551 0C1356.64 127.948 694.448 225.01 236.42 278.045C239.285 248.105 120.562 158.984 0 81.6105V382C378.97 434.975 1311.56 210.337 1551 45.9281V0Z" fill="url(#paint0_linear_170_3397)"/>
<defs>
<linearGradient id="paint0_linear_170_3397" x1="673.177" y1="2.15417" x2="775.5" y2="392.058" gradientUnits="userSpaceOnUse">
<stop stop-color="#803CC3"/>
<stop offset="1" stop-color="#E2B4FF" stop-opacity="0.56"/>
</linearGradient>
</defs>
</svg>
