<svg viewBox="0 0 32 31" fill="none" xmlns="http://www.w3.org/2000/svg">
<g clip-path="url(#clip0_171_1543)">
<path d="M22.4319 0H9.90206C4.80982 0 0.666992 4.14283 0.666992 9.23507V21.7649C0.666992 26.8572 4.80982 31 9.90206 31H22.4319C27.5242 31 31.667 26.8572 31.667 21.7649V9.23507C31.6669 4.14283 27.5241 0 22.4319 0ZM28.5484 21.7649C28.5484 25.1429 25.8099 27.8814 22.4319 27.8814H9.90206C6.52406 27.8814 3.78559 25.1429 3.78559 21.7649V9.23507C3.78559 5.85701 6.52406 3.1186 9.90206 3.1186H22.4319C25.8099 3.1186 28.5484 5.85701 28.5484 9.23507V21.7649Z" fill="url(#paint0_linear_171_1543)"/>
<path d="M16.167 7.4823C11.746 7.4823 8.14929 11.079 8.14929 15.4999C8.14929 19.9209 11.746 23.5177 16.167 23.5177C20.588 23.5177 24.1847 19.9209 24.1847 15.4999C24.1847 11.079 20.588 7.4823 16.167 7.4823ZM16.167 20.3991C13.4613 20.3991 11.2679 18.2057 11.2679 15.5C11.2679 12.7943 13.4613 10.6009 16.167 10.6009C18.8727 10.6009 21.0661 12.7943 21.0661 15.5C21.0661 18.2057 18.8727 20.3991 16.167 20.3991Z" fill="url(#paint1_linear_171_1543)"/>
<path d="M24.2 9.46375C25.261 9.46375 26.1212 8.60362 26.1212 7.5426C26.1212 6.48158 25.261 5.62145 24.2 5.62145C23.139 5.62145 22.2789 6.48158 22.2789 7.5426C22.2789 8.60362 23.139 9.46375 24.2 9.46375Z" fill="url(#paint2_linear_171_1543)"/>
</g>
<defs>
<linearGradient id="paint0_linear_171_1543" x1="16.167" y1="30.9097" x2="16.167" y2="0.240771" gradientUnits="userSpaceOnUse">
<stop stop-color="white"/>
<stop offset="0.6" stop-color="white"/>
<stop offset="1" stop-color="white"/>
</linearGradient>
<linearGradient id="paint1_linear_171_1543" x1="16.167" y1="30.9097" x2="16.167" y2="0.240774" gradientUnits="userSpaceOnUse">
<stop stop-color="white"/>
<stop offset="0.3" stop-color="white"/>
<stop offset="0.531142" stop-color="white"/>
<stop offset="0.6" stop-color="white"/>
<stop offset="1" stop-color="white"/>
</linearGradient>
<linearGradient id="paint2_linear_171_1543" x1="24.2" y1="30.9097" x2="24.2" y2="0.24077" gradientUnits="userSpaceOnUse">
<stop stop-color="white"/>
<stop offset="0.3" stop-color="white"/>
<stop offset="0.6" stop-color="white"/>
<stop offset="1" stop-color="white"/>
</linearGradient>
<clipPath id="clip0_171_1543">
<rect width="31" height="31" fill="white" transform="translate(0.666992)"/>
</clipPath>
</defs>
</svg>
