<svg viewBox="0 0 277 209" fill="none" xmlns="http://www.w3.org/2000/svg">
<path class="color-1" d="M245.333 2.99982C243.867 4.46649 242.667 6.33316 242.667 7.13316C242.667 11.1332 238 17.6665 233.867 19.6665C227.467 22.5998 228.4 27.7998 235.733 30.4665C235.867 30.5998 235.2 34.7332 234.133 39.6665C232 49.7998 228.533 55.3998 224 56.0665C218.667 56.8665 217.2 53.2665 218.133 41.1332C218.933 31.2665 218.667 30.0665 216.133 27.2665C214.133 25.2665 211.733 24.3332 208.133 24.3332C203.067 24.3332 199.333 26.4665 192.267 33.5332C189.067 36.7332 188.933 36.7332 187.2 34.3332C186.133 32.9998 185.333 31.1332 185.333 30.1998C185.333 28.1998 182.267 26.9998 180.267 28.1998C177.733 29.7998 173.6 40.5998 171.867 50.1998C170.533 58.1998 169.6 60.0665 164.8 64.8665C156.8 72.8665 141.733 76.4665 136.8 71.5332C133.2 68.0665 134.4 66.9998 142 66.9998C150.533 66.9998 156 64.5998 159.733 59.2665C168.933 46.3332 160.667 30.7332 145.733 32.8665C131.867 34.7332 123.067 44.0665 118.667 61.2665C117.2 67.1332 112.133 72.3332 107.867 72.3332C104.8 72.3332 104.8 71.7998 107.333 62.0665C109.6 53.1332 109.867 45.2665 108 41.5332C106.133 38.1998 100 38.1998 95.8666 41.5332C92.9333 43.7998 92.6666 45.1332 92.6666 54.5998C92.6666 60.3332 93.2 66.5998 93.7333 68.4665C96.4 76.5998 82.6666 81.1332 78.9333 73.3998C77.6 70.4665 77.6 67.6665 78.8 58.5998C80.6666 46.4665 80 42.9998 76.2666 42.9998C71.2 42.9998 66.2666 52.4665 64.5333 65.7998C63.3333 74.3332 59.2 79.3998 51.0666 82.1998C44.8 84.3332 31.4666 84.9998 27.3333 83.5332C24.1333 82.1998 22.5333 76.9998 24.1333 72.8665C25.3333 69.5332 25.7333 69.3998 31.6 70.1998C43.0666 71.7998 52 66.9998 52 59.3998C52 55.1332 50 54.4665 41.2 56.3332C34.8 57.6665 32.9333 57.6665 31.2 56.1998C27.7333 53.2665 26.4 48.3332 28 44.1998C30 39.5332 34.2666 37.3998 40.8 37.9332C45.3333 38.3332 46.2666 38.9998 48.4 43.2665C51.3333 49.2665 53.4666 49.6665 57.2 44.8665C62.5333 38.0665 59.6 24.8665 51.7333 19.9332C40.5333 12.7332 18.9333 18.8665 12.1333 30.9998C9.06665 36.5998 8.39998 46.5998 10.8 51.3998C11.6 52.9998 14.1333 55.9332 16.2666 57.7998L20.4 61.2665L13.8666 64.4665C3.33331 69.6665 -1.33335 79.1332 0.533313 91.5332C1.73331 99.1332 5.99998 105.533 12.6666 109.4C17.2 112.066 19.4666 112.333 27.4666 111.933C41.4666 111.133 52.9333 104.066 61.4666 90.9998L63.6 87.7998L66.2666 93.6665C69.6 101.266 72.5333 103.666 78.5333 103.533C84.8 103.533 89.7333 100.2 94.9333 92.1998C98.2666 86.9998 99.6 85.7998 101.867 86.4665C105.467 87.2665 111.733 84.9998 115.6 81.3998C117.333 79.7998 118.8 78.7332 118.933 79.1332C119.2 79.3998 120.533 82.0665 122 84.8665C123.467 87.7998 126.4 91.2665 128.667 92.5998C133.467 95.5332 143.6 95.7998 149.867 93.1332C155.2 90.8665 163.6 83.6665 166.667 78.5998L168.933 74.8665L169.867 80.1998C170.933 86.8665 173.733 89.6665 179.2 89.6665C186.667 89.6665 188 86.7332 187.733 71.5332C187.467 60.3332 187.733 57.6665 190.133 53.6665C193.6 47.5332 199.467 45.2665 202.133 48.9998C203.2 50.4665 203.733 52.4665 203.333 53.5332C202.933 54.5998 202.267 59.6665 201.867 64.8665C200.4 81.2665 205.467 88.0665 216.533 84.3332C220.933 82.8665 229.333 74.9998 229.333 72.3332C229.333 69.7998 231.333 71.1332 233.6 74.9998C238.133 82.8665 248.267 83.1332 257.2 75.5332C261.6 71.9332 270.133 55.7998 271.467 48.7332C272.667 42.4665 269.2 41.5332 264.4 46.8665C259.067 52.7332 253.2 53.6665 248.8 49.2665C242 42.4665 245.067 31.3998 254.267 28.9998C261.333 27.2665 262.933 25.6665 262.4 20.8665C262 17.2665 261.6 16.9998 257.067 17.3998C251.333 17.9332 251.467 18.1998 253.467 10.1998C255.733 1.26649 251.2 -2.86684 245.333 2.99982ZM148.667 49.7998C149.867 53.2665 147.2 57.5332 143.333 58.4665C138.933 59.5332 135.733 56.8665 136.267 52.4665C136.933 46.3332 146.933 44.1998 148.667 49.7998Z" />
<path class="color-1" d="M160 98.4665C150.933 102.333 140.933 114.467 135.333 128.067C132.8 134.333 132 135.133 131.2 133C128.267 124.733 126.533 121.667 122.533 117C116.267 109.933 109.333 107 98.4 107C78.2667 107 61.2 119.4 57.3333 136.733C52.5333 157.8 71.7333 172.867 85.4667 159C89.2 155.267 90.8 148.333 88 148.333C84.9333 148.333 81.3333 142.867 81.3333 138.333C81.3333 129.133 92.2667 123.4 97.8667 129.533C104.4 136.733 100.267 156.6 89.8667 168.2C80.4 178.733 70 180.333 63.4667 172.067C60.5333 168.2 60.1333 168.067 56.6667 169.8C47.4667 174.333 44.2667 186.467 49.3333 197C55.6 210.067 70.9333 211.933 87.0667 201.667C98.5333 194.467 106.4 178.2 109.467 155.667C110.267 149 111.6 143.267 112.4 142.733C117.2 139.8 118.667 151.4 116 170.333C113.733 185.667 116.533 190.867 126.133 189C132.133 187.933 133.867 184.333 136.4 166.333C139.067 148.867 140.667 142.467 143.467 139.667C148.4 134.733 149.867 139.133 147.2 150.733C144.4 162.467 144.267 175.667 147.067 182.067C152.4 194.6 169.2 191.8 176.933 177.133L178.933 173.267L181.333 178.6C186.4 189.933 198.933 187.4 205.733 173.667L209.2 166.867L210.533 171.8C211.2 174.467 212.933 177.8 214.133 179.133C219.067 184.6 230.4 180.733 236.533 171.4C240.8 165 247.067 148.467 246.133 146.067C244.933 143.133 242 144.067 238.933 148.333C235.2 153.267 230.267 153.667 227.333 149.133C225.467 146.333 225.333 144.6 226.533 138.2C229.467 122.467 227.867 116.867 221.6 120.2C218 122.067 214.933 129.133 212.4 141C209.733 152.867 206.933 156.6 200.933 156.067C196.667 155.667 196.667 155.533 196.667 148.333C196.667 144.333 197.2 137.933 197.733 134.333C198.533 129.267 198.267 127 196.933 125.133C195.067 122.6 194.8 122.6 191.467 124.733C186.933 127.8 184.4 132.867 181.333 145.4C177.867 159.533 171.6 164.867 164.533 159.8C162.267 158.067 162 156.2 162 144.733C162 128.467 163.867 123.667 170.4 123.667C175.2 123.667 176.667 122.067 178.8 114.6C180.667 107.667 178.4 101 173.333 98.3332C168.533 95.7999 166 95.9332 160 98.4665Z" />
<path class="color-1" d="M259.333 112.067C257.333 116.867 256.267 117.933 250.8 119.533C246.933 120.733 245.867 121.533 247.733 121.533C253.2 121.8 258.667 125.533 259.6 129.667C260.533 134.733 262.267 134.733 263.333 129.667C264.267 125.4 269.467 121.8 274.933 121.533C277.2 121.4 276.8 121.133 273.333 120.067C267.333 118.333 264.267 115.533 262.8 110.467L261.733 106.333L259.333 112.067Z"/>
<path class="color-1" d="M21.3333 137.666C21.3333 142.866 17.8666 146.733 11.7333 148.6L6.1333 150.2L11.3333 151.266C18 152.733 19.7333 154.333 20.8 159.933L21.7333 164.733L24.5333 158.866C26.8 154.066 28.2666 152.733 32.6666 151.533L38 149.933L34 149C29.2 147.8 24 143.4 24 140.466C24 139.266 23.3333 137.4 22.6666 136.333C21.6 134.733 21.3333 135 21.3333 137.666Z"/>
</svg>
