<svg  viewBox="0 0 522 522" fill="white" xmlns="http://www.w3.org/2000/svg">
<g clip-path="url(#clip0_170_3318)">
<path d="M89.1213 250.317C117.81 246.326 140.245 224.506 151.914 189.657C153.349 185.676 144.921 180.88 142.452 185.997C137.368 196.655 124.77 203.381 109.74 205.469C91.0026 208.073 79.8993 204.044 78.6541 195.067C77.8656 189.406 80.5626 183.061 85.837 180.935C92.0412 184.056 97.669 184.464 102.938 183.73C118.946 181.506 125.601 175.008 124.193 164.862C123.486 159.783 121.964 157.412 118.641 157.874C113.177 158.63 106.032 161.615 95.6898 163.056C90.2849 161.42 85.8751 156.858 84.9779 150.414C83.8088 142.024 88.3056 132.846 101.774 130.97C114.46 129.208 118.419 136.217 119.615 144.803C119.941 147.146 121.942 148.658 125.259 148.201C132.871 147.141 138.842 137.158 137.026 124.08C135.476 112.955 127.689 94.1415 98.2182 98.2413C69.133 102.281 52.5649 120.502 55.8764 144.313C57.4804 155.83 63.0267 162.823 70.8186 165.916C73.3525 166.955 73.1731 169.962 70.2694 170.566C49.6287 175.225 38.5851 193.077 41.7552 215.914C45.3657 241.873 66.2838 253.493 89.1213 250.317Z"/>
<path d="M228.914 173.979C225.178 181.461 220.29 184.924 214.63 185.713C211.894 186.093 209.502 186.028 207.441 185.517C218.99 152.675 218.235 130.098 201.841 132.376C188.372 134.252 184.359 149.727 186.746 166.904C187.616 173.152 189.209 178.9 191.417 184.761C189.873 187.958 186.425 193.217 178.225 194.353C170.221 195.468 166.056 191.27 165.029 183.853C163.425 172.337 170.145 156.28 168.628 145.35C167.84 139.69 165.393 137.841 161.489 138.385C150.755 139.88 143.502 164.963 141.468 186.137C138.782 211.177 147.705 239.582 168.59 236.678C180.498 235.025 190.547 222.884 198.355 207.474C201.357 209.045 204.619 209.583 207.936 209.127C226.869 206.489 234.373 190.329 238.375 177.633C239.898 172.848 230.795 170.33 228.914 173.979Z"/>
<path d="M267.968 223.063C290.61 219.915 308.961 200.253 321.718 166.046C323.349 162.038 314.725 157.27 312.256 162.386C305.345 177.078 290.485 186.11 277.212 187.953C266.086 189.498 256.424 187.263 255.472 180.428C255.119 177.894 256.99 177.035 258.463 177.628C263.308 179.542 268.658 179.395 274.123 178.633C293.252 175.975 303.322 158.259 301.343 144.007C299.549 131.126 289.919 120.528 271.769 123.051C215.752 130.843 213.12 230.687 267.968 223.063ZM267.011 164.697C260.769 165.567 257.327 162.267 256.729 157.971C255.994 152.702 259.893 146.389 267.506 145.334C273.552 144.491 277 147.792 277.598 152.088C278.272 156.965 274.623 163.642 267.011 164.697Z"/>
<path d="M326.905 214.869C340.374 212.993 341.423 201.906 340.037 191.95L338.813 183.168C336.399 165.795 343.908 148.238 355.229 146.666C359.715 146.041 362.972 147.977 363.592 152.462C364.707 160.466 358.328 174.686 360.389 189.519C361.912 200.448 367.507 209.219 379.801 207.512C406.157 203.847 414.161 164.137 418.913 152.533C420.544 148.526 411.926 143.757 409.452 148.874C406.363 155.274 403.226 159.885 397.37 160.7C390.926 161.597 387.566 158.879 386.642 152.245C385.288 142.485 390.665 135.372 389.224 125.025C387.87 115.265 381.068 107.853 369.16 109.512C360.574 110.702 353.337 115.89 347.089 123.921C341.711 131.033 337.487 129.233 336.426 121.621C335.882 117.717 334.224 114.367 328.955 115.101C321.734 116.107 314.932 138.738 311.664 162.473C309.402 179.101 309.402 193.423 310.68 202.596C311.816 210.796 317.732 216.141 326.905 214.869Z"/>
<path d="M431.526 200.321C459.632 196.412 469.447 156.848 473.759 144.908C475.194 140.927 466.793 136.327 464.297 141.248C461.236 147.844 455.505 152.417 447.697 153.504C436.18 155.108 428.932 147.36 431.134 133.125C433.026 119.531 434.141 118.982 452.291 116.453C460.1 115.371 459.947 97.0849 454.678 97.8189L444.527 99.2327C440.818 99.7492 440.943 96.3454 443.004 89.6953C447.343 76.5583 443.961 70.8598 436.74 71.8603C431.863 72.54 427.812 74.8944 424.702 86.8678C422.945 94.2737 417.785 102.946 406.464 104.523C401.978 105.149 404.262 120.151 415.583 118.574C412.576 132.722 409.879 144.837 407.921 155.054C402.609 181.263 409.661 203.361 431.526 200.321Z"/>
<path d="M326.845 317.413C323.446 324.449 318.08 328.778 312.223 329.593C303.442 330.811 299.532 325.586 298.418 317.582C296.765 305.679 298.537 271.211 308.298 269.851C310.831 269.498 312.887 271.401 315.818 270.999C322.647 270.047 328.471 256.105 326.839 244.393C325.377 233.855 318.384 225.079 303.355 227.167C281.692 230.179 260.73 259.754 251.623 288.676C243.798 256.736 222.157 238.455 188.194 243.18C148.963 248.634 127.446 278.486 131.546 307.957C134.096 326.304 147.097 336.831 162.518 334.688C179.891 332.274 187.117 315.554 182.49 308.039C176.83 308.822 171.8 304.151 170.854 297.322C169.141 285.022 176.726 276.605 186.095 275.305C194.491 274.136 200.352 279.09 201.788 289.437C204.719 310.518 189.798 350.593 162.475 354.394C151.154 355.965 141.943 351.278 140.752 342.692C140.562 341.322 139.061 340.539 137.495 340.756C121.884 342.926 113.733 360.174 115.962 376.182C118.213 392.38 131.644 407.426 154.286 404.277C187.471 399.661 213.326 371 217.388 305.772C217.654 301.954 219.362 299.926 222.097 299.546C224.631 299.192 227.023 300.649 228.084 308.262C230.579 326.222 222.298 349.658 224.305 364.1C225.419 372.104 229.138 375.964 241.438 374.251C247.876 373.36 254.553 369.842 256.19 355.883C262.014 304.738 266.679 293.945 273.514 292.993C275.852 292.667 277.413 293.847 277.815 296.772C278.902 304.581 268.278 328.343 271.372 350.593C273.84 368.352 282.752 378.058 297.194 376.051C323.544 372.386 331.554 332.676 336.306 321.073C334.033 317.609 329.009 312.933 326.845 317.413Z"/>
<path d="M423.841 303.926C420.753 310.326 417.615 314.937 411.759 315.752C406.49 316.486 401.341 313.817 400.313 306.4C398.954 296.645 405.675 280.588 404.158 269.659C403.369 263.998 400.922 262.149 397.018 262.688C387.068 264.074 380.988 279.044 376.541 305.726L376.454 306.536C374.496 316.758 368.988 321.5 361.957 322.478C355.519 323.376 353.301 320.298 352.539 314.833C350.941 303.317 357.906 289.022 356.139 276.33C355.432 271.257 353.301 268.767 349.005 269.365C338.076 270.887 331.268 287.749 326.249 317.498C324.112 330.727 325.319 342.298 326.135 348.149C328.359 364.157 335.999 370.454 346.542 368.991C361.767 366.876 369.407 350.291 373.92 335.539C373.941 338.519 374.099 341.086 374.447 343.619C376.377 357.48 382.68 364.162 394.196 362.564C420.546 358.899 428.55 319.189 433.308 307.585C434.939 303.578 426.315 298.809 423.841 303.926Z"/>
<path d="M69.8501 282.087C66.7507 308.312 64.2332 310.83 38.0081 313.929C38.0625 313.94 38.1169 313.945 38.1712 313.951C64.2441 317.045 66.7562 319.606 69.8501 345.771C72.9549 319.551 75.4725 317.034 101.692 313.929C75.4725 310.83 72.9549 308.312 69.8501 282.087Z"/>
<path d="M475.102 228.832C471.948 255.486 469.392 258.042 442.738 261.196C442.792 261.201 442.846 261.212 442.901 261.217H442.906C469.403 264.36 471.953 266.965 475.102 293.56C478.255 266.91 480.811 264.349 507.466 261.196C480.811 258.042 478.255 255.486 475.102 228.832Z"/>
</g>
<defs>
<clipPath id="clip0_170_3318">
<rect width="522" height="522" fill="white"/>
</clipPath>
</defs>
</svg>
